<?xml version="1.0" encoding="UTF-8"?>
<svg width="30px" height="38px" viewBox="0 0 30 38" version="1.1" xmlns="http://www.w3.org/2000/svg" xmlns:xlink="http://www.w3.org/1999/xlink">
    <!-- Generator: Sketch 49 (51002) - http://www.bohemiancoding.com/sketch -->
    <title>统计页logo的副本</title>
    <desc>Created with Sketch.</desc>
    <defs></defs>
    <g id="Page-1" stroke="none" stroke-width="1" fill="none" fill-rule="evenodd">
        <g id="统计页logo的副本" fill="#FFFFFF" fill-rule="nonzero">
            <g id="Group-2" transform="translate(0.074217, 0.160359)">
                <path d="M26.5356,13.0882953 L28.0665,13.9721608 L26.5356,11.3205642 L26.5356,13.0882953 Z M26.5356,13.0882953 L16.3197829,7.1901905 L16.3197829,3.65472839 L29.5974,11.3205642 L29.5974,26.6522358 L16.3197829,34.3180716 L16.3197829,30.7826095 L26.5356,24.8845047 L26.5356,13.0882953 Z M26.5356,24.8845047 L28.0665,24.0006392 L26.5356,26.6522358 L26.5356,24.8845047 Z M28.0665,24.0006392 L26.5356,26.6522358 L26.5356,24.8845047 L28.0665,24.0006392 Z M26.5356,24.8845047 L26.5356,13.0882953 L16.3197829,7.1901905 L16.3197829,3.65472839 L29.5974,11.3205642 L29.5974,26.6522358 L16.3197829,34.3180716 L16.3197829,30.7826095 L26.5356,24.8845047 Z M26.5356,13.0882953 L26.5356,11.3205642 L28.0665,13.9721608 L26.5356,13.0882953 Z M9.1854,23.1054379 L16.3197829,27.2244758 L16.3197829,30.7599379 L6.1236,24.8731689 L6.1236,13.0996311 L16.3197829,7.21286211 L16.3197829,10.7483242 L9.1854,14.8673621 L9.1854,23.1054379 Z M3.0618,26.6409 L16.3197829,34.2954 L16.3197829,37.8308621 L-2.27373675e-13,28.4086311 L-2.27373675e-13,9.56416895 L16.3197829,0.141937892 L16.3197829,3.6774 L3.0618,11.3319 L3.0618,26.6409 Z M16.3296,20.736 L23.4738,16.9452 L23.4738,23.3604 L16.3296,27.1512 L16.3296,20.736 Z" id="Combined-Shape"></path>
            </g>
        </g>
    </g>
</svg>