<?xml version="1.0" standalone="no"?><!DOCTYPE svg PUBLIC "-//W3C//DTD SVG 1.1//EN" "http://www.w3.org/Graphics/SVG/1.1/DTD/svg11.dtd"><svg t="1687446453842" class="icon" viewBox="0 0 1024 1024" version="1.1" xmlns="http://www.w3.org/2000/svg" p-id="6227" xmlns:xlink="http://www.w3.org/1999/xlink" width="300" height="300"><path d="M639.984002 1024v-127.984002h383.952006v127.984002z m-639.92001-63.992001v-95.988001a288.731909 288.731909 0 0 1 287.964005-287.964005H512v127.984002H288.027997a159.980002 159.980002 0 0 0-159.980003 159.980003v95.988001a63.992001 63.992001 0 1 1-127.984002 0z m639.92001-127.984002v-127.984002h383.952006v127.984002z m0-191.976003v-127.984002h383.952006v127.984002z m-447.944007-383.952006a255.968004 255.968004 0 1 1 255.968004 255.968004 255.968004 255.968004 0 0 1-255.968004-255.968004z m127.984002 0a127.984002 127.984002 0 1 0 127.984002-127.984002 127.984002 127.984002 0 0 0-127.984002 127.984002z" fill="#8F9BB3" p-id="6228"></path></svg>